Format                           : AVI
Format/Info                      : Audio Video Interleave
File size                        : 892 MiB
Duration                         : 2h 25mn
Overall bit rate                 : 855 Kbps

Video
ID                               : 0
Format                           : MPEG-4 Visual
Format profile                   : Simple@L1
Format settings, BVOP            : No
Format settings, QPel            : No
Format settings, GMC             : No warppoints
Format settings, Matrix          : Default (MPEG)
Codec ID                         : DX50
Codec ID/Hint                    : DivX 5
Duration                         : 2h 25mn
Bit rate                         : 746 Kbps
Width                            : 640 pixels
Height                           : 324 pixels
Display aspect ratio             : 1.975
Frame rate                       : 23.976 fps
Resolution                       : 8 bits
Colorimetry                      : 4:2:0
Scan type                        : Progressive
Bits/(Pixel*Frame)               : 0.150
Stream size                      : 778 MiB (87%)
Writing library                  : Lavc51.40.4

Audio
ID                               : 1
Format                           : MPEG Audio
Format version                   : Version 1
Format profile                   : Layer 3
Codec ID                         : 55
Codec ID/Hint                    : MP3
Duration                         : 2h 25mn
Bit rate mode                    : Constant
Bit rate                         : 96.0 Kbps
Channel(s)                       : 2 channels
Sampling rate                    : 48.0 KHz
Stream size                      : 100 MiB (11%)
Alignment                        : Split accross interleaves
Interleave, duration             : 24 ms (0.58 video frame)